<?xml version="1.0"?><svg fill="#000000" xmlns="http://www.w3.org/2000/svg"  viewBox="0 0 64 64" width="64px" height="64px">    
    <path d="M 32 2 C 29.97 2 28.061906 2.7906094 26.628906 4.2246094 L 4.2246094 26.628906 C 2.7906094 28.062906 2 29.971 2 32 C 2 34.029 2.7906094 35.937094 4.2246094 37.371094 L 26.628906 59.775391 C 28.061906 61.209391 29.97 62 32 62 C 34.038 62 35.946094 61.208391 37.371094 59.775391 L 59.779297 37.376953 C 61.202297 35.943953 61.99 34.051875 62 32.046875 C 62.018 30.004875 61.227391 28.080906 59.775391 26.628906 L 37.378906 4.2226562 C 35.944906 2.7896563 34.034 2 32 2 z M 32 4 C 33.5 4 34.907844 4.5817187 35.964844 5.6367188 L 42.949219 12.628906 L 40.945312 14.636719 C 40.554313 15.027719 40.554313 15.659781 40.945312 16.050781 C 41.336312 16.440781 41.968375 16.440828 42.359375 16.048828 L 44.363281 14.044922 L 55.169922 24.855469 L 44.167969 35.726562 L 33.431641 24.980469 L 39.154297 19.253906 C 39.545297 18.862906 39.545297 18.230844 39.154297 17.839844 C 38.763297 17.449844 38.131234 17.449844 37.740234 17.839844 L 32.017578 23.566406 L 21.070312 12.609375 L 28.042969 5.6386719 C 29.098969 4.5826719 30.504 4 32 4 z M 19.654297 14.027344 L 30.601562 24.984375 L 12.644531 42.964844 L 5.6386719 35.957031 C 4.5826719 34.900031 4 33.495 4 32 C 4 30.505 4.5826719 29.099969 5.6386719 28.042969 L 19.654297 14.027344 z M 56.591797 26.271484 L 58.361328 28.042969 C 59.430328 29.112969 60.013 30.527297 60 32.029297 L 60 32.033203 C 59.993 33.511203 59.410328 34.907891 58.361328 35.962891 L 51.378906 42.939453 L 45.703125 37.261719 L 56.591797 26.271484 z M 32.017578 26.402344 L 49.960938 44.359375 L 35.955078 58.363281 C 34.906078 59.418281 33.502 60 32 60 C 30.504 60 29.098969 59.417328 28.042969 58.361328 L 14.0625 44.380859 L 32.017578 26.402344 z M 19.201172 41.390625 C 18.945297 41.390625 18.689141 41.488094 18.494141 41.683594 L 17.080078 43.097656 C 16.689078 43.488656 16.689078 44.120719 17.080078 44.511719 C 17.471078 44.902719 18.103141 44.902719 18.494141 44.511719 L 19.908203 43.097656 C 20.299203 42.706656 20.299203 42.074594 19.908203 41.683594 C 19.712703 41.488094 19.457047 41.390625 19.201172 41.390625 z M 22.736328 44.923828 C 22.480578 44.923828 22.224797 45.02325 22.029297 45.21875 L 20.615234 46.632812 C 20.224234 47.023812 20.224234 47.655875 20.615234 48.046875 C 21.006234 48.437875 21.638297 48.437875 22.029297 48.046875 L 23.443359 46.632812 C 23.834359 46.241813 23.834359 45.60975 23.443359 45.21875 C 23.247859 45.02325 22.992078 44.923828 22.736328 44.923828 z M 26.273438 48.460938 C 26.017688 48.460938 25.761906 48.558406 25.566406 48.753906 L 24.152344 50.167969 C 23.761344 50.558969 23.761344 51.191031 24.152344 51.582031 C 24.543344 51.973031 25.175406 51.973031 25.566406 51.582031 L 26.980469 50.167969 C 27.371469 49.776969 27.371469 49.144906 26.980469 48.753906 C 26.784969 48.558406 26.529187 48.460938 26.273438 48.460938 z M 29.808594 51.996094 C 29.552844 51.996094 29.297063 52.093562 29.101562 52.289062 L 27.6875 53.703125 C 27.2965 54.094125 27.2965 54.726188 27.6875 55.117188 C 28.0785 55.508187 28.710562 55.508188 29.101562 55.117188 L 30.515625 53.703125 C 30.906625 53.312125 30.906625 52.680062 30.515625 52.289062 C 30.320125 52.093563 30.064344 51.996094 29.808594 51.996094 z M 33.34375 55.53125 C 33.088 55.53125 32.832219 55.628719 32.636719 55.824219 L 31.222656 57.238281 C 30.831656 57.629281 30.831656 58.261344 31.222656 58.652344 C 31.613656 59.043344 32.245719 59.043344 32.636719 58.652344 L 34.050781 57.238281 C 34.441781 56.847281 34.441781 56.215219 34.050781 55.824219 C 33.855281 55.628719 33.5995 55.53125 33.34375 55.53125 z" id="Combined-Shape" fill="#000000" opacity="0.3"/></svg>
